<?xml version="1.0" encoding="utf-8"?>
<!-- Generator: Adobe Illustrator 25.4.1, SVG Export Plug-In . SVG Version: 6.00 Build 0)  -->
<svg version="1.1" id="Layer_1" xmlns="http://www.w3.org/2000/svg" xmlns:xlink="http://www.w3.org/1999/xlink" x="0px" y="0px"
	 viewBox="0 0 1080 1080" style="enable-background:new 0 0 1080 1080;" xml:space="preserve">
<style type="text/css">
	.st0{fill:url(#SVGID_1_);}
	.st1{fill:url(#SVGID_00000011749275460188655320000002498742781482429332_);}
	.st2{fill:url(#SVGID_00000039134447238495664870000012919767011514796167_);}
	.st3{fill:url(#SVGID_00000004528130482133170800000008385658313324486576_);}
	.st4{fill:url(#SVGID_00000152987004330345033440000010087041019194783110_);}
	.st5{fill:url(#SVGID_00000044179975397484869270000006875110874760040891_);}
	.st6{fill:url(#SVGID_00000071556613460807643490000001285088737132393880_);}
	.st7{fill:url(#SVGID_00000146475764170030106580000012669262487831187598_);}
	.st8{fill:url(#SVGID_00000020375866644319971150000013571840001378380440_);}
	.st9{fill:url(#SVGID_00000170974247455485376920000010772613365302579646_);}
	.st10{fill:url(#SVGID_00000046332834907241456450000007492070412990190255_);}
	.st11{fill:url(#SVGID_00000128480900475804165370000008880552885973310086_);}
	.st12{fill:url(#SVGID_00000060743720632389447850000010053303964113530807_);}
	.st13{fill:url(#SVGID_00000078008435733981508950000000324859520934904971_);}
	.st14{fill:url(#SVGID_00000093874145010220243430000004310644891039888283_);}
</style>
<g>
	<g>
		<linearGradient id="SVGID_1_" gradientUnits="userSpaceOnUse" x1="158.7934" y1="607.8486" x2="158.7934" y2="650.9679">
			<stop  offset="0" style="stop-color:#45B757"/>
			<stop  offset="1" style="stop-color:#008152"/>
		</linearGradient>
		<path class="st0" d="M158.79,650.97c5.94,0,11.03-2.1,15.24-6.32c4.21-4.21,6.32-9.29,6.32-15.24c0-5.95-2.11-11.02-6.32-15.24
			c-4.21-4.21-9.29-6.32-15.24-6.32c-5.94,0-11.03,2.11-15.24,6.32c-4.22,4.22-6.32,9.29-6.32,15.24c0,5.95,2.1,11.03,6.32,15.24
			C147.77,648.87,152.85,650.97,158.79,650.97z"/>
		
			<linearGradient id="SVGID_00000168091708399966563980000001280034034675584919_" gradientUnits="userSpaceOnUse" x1="158.7934" y1="671.0396" x2="158.7934" y2="714.1626">
			<stop  offset="0" style="stop-color:#45B757"/>
			<stop  offset="1" style="stop-color:#008152"/>
		</linearGradient>
		<path style="fill:url(#SVGID_00000168091708399966563980000001280034034675584919_);" d="M158.79,714.16
			c5.94,0,11.03-2.11,15.24-6.32c4.21-4.22,6.32-9.29,6.32-15.24c0-5.95-2.11-11.02-6.32-15.24c-4.21-4.21-9.29-6.32-15.24-6.32
			c-5.94,0-11.03,2.11-15.24,6.32c-4.22,4.22-6.32,9.29-6.32,15.24c0,5.95,2.1,11.02,6.32,15.24
			C147.77,712.05,152.85,714.16,158.79,714.16z"/>
		
			<linearGradient id="SVGID_00000065763528089348627220000001203715040797052344_" gradientUnits="userSpaceOnUse" x1="221.9919" y1="675.8722" x2="221.9919" y2="740.9236">
			<stop  offset="0" style="stop-color:#45B757"/>
			<stop  offset="1" style="stop-color:#008152"/>
		</linearGradient>
		<path style="fill:url(#SVGID_00000065763528089348627220000001203715040797052344_);" d="M203.41,740.92
			c4.7-0.25,9.48-1.18,14.31-2.79c4.83-1.61,9.29-3.84,13.39-6.69c4.08-2.85,7.25-6.38,9.48-10.6v-44.98l-37.17,17.84V740.92z"/>
		
			<linearGradient id="SVGID_00000130606314304210593740000001599698715885009537_" gradientUnits="userSpaceOnUse" x1="221.9919" y1="562.4945" x2="221.9919" y2="686.2786">
			<stop  offset="0" style="stop-color:#45B757"/>
			<stop  offset="1" style="stop-color:#008152"/>
		</linearGradient>
		<polygon style="fill:url(#SVGID_00000130606314304210593740000001599698715885009537_);" points="203.41,686.28 240.58,668.43 
			240.58,562.49 203.41,570.67 		"/>
		
			<linearGradient id="SVGID_00000014629526475169860310000017945346053860670111_" gradientUnits="userSpaceOnUse" x1="185.0061" y1="731.2583" x2="185.0061" y2="859.8751">
			<stop  offset="0" style="stop-color:#45B757"/>
			<stop  offset="1" style="stop-color:#008152"/>
		</linearGradient>
		<path style="fill:url(#SVGID_00000014629526475169860310000017945346053860670111_);" d="M229.61,742.04
			c-4.83,2.48-10.04,4.15-15.61,5.02c-5.58,0.87-10.97,1.3-16.17,1.3c-5.21,0-9.42,0-12.64,0c-10.16,0-19.45,2.48-27.88,7.43
			c-8.42,4.96-15.19,11.65-20.26,20.07c-5.08,8.43-7.62,17.84-7.62,28.25c0,10.16,2.53,19.52,7.62,28.07
			c5.07,8.55,11.84,15.31,20.26,20.26c8.42,4.96,17.71,7.43,27.88,7.43s19.45-2.47,27.88-7.43c8.42-4.95,15.11-11.71,20.07-20.26
			c4.95-8.55,7.43-17.9,7.43-28.07v-72.86C238.1,735.97,234.44,739.56,229.61,742.04z M198.38,817.31c-3.59,3.6-7.99,5.39-13.2,5.39
			s-9.6-1.8-13.2-5.39c-3.59-3.59-5.38-7.99-5.38-13.2c0-5.2,1.79-9.6,5.38-13.19c3.59-3.59,7.99-5.39,13.2-5.39s9.6,1.8,13.2,5.39
			c3.59,3.59,5.39,7.99,5.39,13.19C203.78,809.32,201.98,813.72,198.38,817.31z"/>
		
			<linearGradient id="SVGID_00000090280032153625423290000009549083332371939745_" gradientUnits="userSpaceOnUse" x1="559.3305" y1="562.4945" x2="559.3305" y2="934.2211">
			<stop  offset="0" style="stop-color:#45B757"/>
			<stop  offset="1" style="stop-color:#008152"/>
		</linearGradient>
		<path style="fill:url(#SVGID_00000090280032153625423290000009549083332371939745_);" d="M822.32,822.7h-29.74h-14.87h-29.78
			c-0.05-9.2-0.88-18.14-2.56-26.76c-1.74-8.92-5.02-16.97-9.85-24.16c-4.83-7.18-11.9-12.88-21.18-17.1
			c-9.29-4.21-21.63-6.32-36.99-6.32H487.77v-37.17l-37.17,8.18V822.7h-35.31h-14.87h-33.01c2.11-5.87,3.27-12.04,3.27-18.59V570.67
			l-37.17-8.18v241.62c0,5.21-1.8,9.61-5.39,13.2c-3.59,3.6-7.99,5.39-13.2,5.39c-5.2,0-9.6-1.8-13.2-5.39
			c-3.59-3.59-5.38-7.99-5.38-13.2V562.49l-37.17,8.18v233.44c0,10.16,2.53,19.52,7.62,28.07c1.97,3.32,4.28,6.29,6.76,9.07
			c-2.48,2.75-4.79,5.68-6.76,8.96c-5.08,8.43-7.62,17.84-7.62,28.25c0,10.16,2.53,19.52,7.62,28.07
			c5.07,8.55,11.84,15.3,20.26,20.26c8.42,4.95,17.71,7.43,27.88,7.43s19.45-2.48,27.88-7.43c8.42-4.96,15.11-11.71,20.07-20.26
			c4.95-8.55,7.43-17.9,7.43-28.07c0-6.61-1.12-12.77-3.12-18.59h33.22h14.87h52.04h35.32H720.1h13.02h44.61h14.87h52.04
			c4.95-0.25,8.67-0.99,11.16-2.23c2.47-1.24,3.71-3.35,3.71-6.32V562.49l-37.17,8.18V822.7z M328.12,865.26
			c3.59,3.59,5.39,7.99,5.39,13.2s-1.8,9.6-5.39,13.2c-3.59,3.59-7.99,5.39-13.2,5.39c-5.2,0-9.6-1.8-13.2-5.39
			c-3.59-3.6-5.38-7.99-5.38-13.2s1.79-9.6,5.38-13.2c3.59-3.59,7.99-5.39,13.2-5.39C320.12,859.88,324.52,861.67,328.12,865.26z
			 M502.64,822.7h-14.88v-37.17h189.58c13.88,0,22.98,3.6,27.32,10.78c4.33,7.19,6.38,15.98,6.13,26.39H502.64z"/>
		
			<linearGradient id="SVGID_00000134937744106949354810000014694322463629767337_" gradientUnits="userSpaceOnUse" x1="914.3245" y1="562.4945" x2="914.3245" y2="861.363">
			<stop  offset="0" style="stop-color:#45B757"/>
			<stop  offset="1" style="stop-color:#008152"/>
		</linearGradient>
		<path style="fill:url(#SVGID_00000134937744106949354810000014694322463629767337_);" d="M929.38,842.59
			c-3.97-0.12-7.31-1.12-10.04-2.98c-2.73-1.86-4.08-5.02-4.08-9.48V562.49l-37.17,8.18v259.47c0,8.92,2.22,15.8,6.69,20.63
			c4.46,4.83,9.98,7.99,16.55,9.48c6.56,1.49,13.38,1.49,20.44,0c7.06-1.49,13.25-4.14,18.59-7.99c5.32-3.84,8.74-8.49,10.22-13.94
			c-2.23,0.99-5.33,1.99-9.29,2.98C937.31,842.28,933.34,842.72,929.38,842.59z"/>
	</g>
	<g>
		
			<linearGradient id="SVGID_00000067932509534014876230000002364069102090175130_" gradientUnits="userSpaceOnUse" x1="165.857" y1="254.3239" x2="165.857" y2="297.447">
			<stop  offset="0" style="stop-color:#45B757"/>
			<stop  offset="1" style="stop-color:#008152"/>
		</linearGradient>
		<path style="fill:url(#SVGID_00000067932509534014876230000002364069102090175130_);" d="M165.86,297.45
			c5.94,0,11.03-2.11,15.24-6.32c4.21-4.22,6.32-9.29,6.32-15.24c0-5.95-2.11-11.02-6.32-15.24c-4.21-4.21-9.29-6.32-15.24-6.32
			c-5.94,0-11.03,2.11-15.24,6.32c-4.22,4.22-6.32,9.29-6.32,15.24c0,5.95,2.1,11.02,6.32,15.24
			C154.83,295.34,159.91,297.45,165.86,297.45z"/>
		
			<linearGradient id="SVGID_00000181070251287199408790000008884948934365460119_" gradientUnits="userSpaceOnUse" x1="165.857" y1="191.133" x2="165.857" y2="234.2523">
			<stop  offset="0" style="stop-color:#45B757"/>
			<stop  offset="1" style="stop-color:#008152"/>
		</linearGradient>
		<path style="fill:url(#SVGID_00000181070251287199408790000008884948934365460119_);" d="M165.86,234.25
			c5.94,0,11.03-2.1,15.24-6.32c4.21-4.21,6.32-9.29,6.32-15.24s-2.11-11.02-6.32-15.24c-4.21-4.21-9.29-6.32-15.24-6.32
			c-5.94,0-11.03,2.11-15.24,6.32c-4.22,4.22-6.32,9.29-6.32,15.24s2.1,11.03,6.32,15.24C154.83,232.15,159.91,234.25,165.86,234.25
			z"/>
		
			<linearGradient id="SVGID_00000102525972865534267020000001255148576046924955_" gradientUnits="userSpaceOnUse" x1="229.0556" y1="259.1566" x2="229.0556" y2="324.2079">
			<stop  offset="0" style="stop-color:#45B757"/>
			<stop  offset="1" style="stop-color:#008152"/>
		</linearGradient>
		<path style="fill:url(#SVGID_00000102525972865534267020000001255148576046924955_);" d="M238.16,314.73
			c4.08-2.85,7.25-6.38,9.48-10.6v-44.98L210.47,277v47.21c4.7-0.25,9.48-1.18,14.31-2.79
			C229.61,319.81,234.07,317.58,238.16,314.73z"/>
		
			<linearGradient id="SVGID_00000132793601619652474160000008556798860692600967_" gradientUnits="userSpaceOnUse" x1="229.0556" y1="145.7789" x2="229.0556" y2="269.563">
			<stop  offset="0" style="stop-color:#45B757"/>
			<stop  offset="1" style="stop-color:#008152"/>
		</linearGradient>
		<polygon style="fill:url(#SVGID_00000132793601619652474160000008556798860692600967_);" points="247.64,145.78 210.47,153.95 
			210.47,269.56 247.64,251.72 		"/>
		
			<linearGradient id="SVGID_00000125579547862020240170000010857592611018961310_" gradientUnits="userSpaceOnUse" x1="369.0982" y1="477.3546" x2="369.0982" y2="520.4777">
			<stop  offset="0" style="stop-color:#45B757"/>
			<stop  offset="1" style="stop-color:#008152"/>
		</linearGradient>
		<path style="fill:url(#SVGID_00000125579547862020240170000010857592611018961310_);" d="M369.1,477.35
			c-5.95,0-11.03,2.11-15.24,6.32c-4.22,4.22-6.32,9.29-6.32,15.24c0,5.95,2.1,11.02,6.32,15.24c4.2,4.21,9.29,6.32,15.24,6.32
			c5.94,0,11.03-2.11,15.24-6.32c4.21-4.22,6.32-9.29,6.32-15.24c0-5.95-2.11-11.02-6.32-15.24
			C380.12,479.46,375.04,477.35,369.1,477.35z"/>
		
			<linearGradient id="SVGID_00000043421707331939200350000006823998618411785656_" gradientUnits="userSpaceOnUse" x1="304.788" y1="477.3546" x2="304.788" y2="520.4777">
			<stop  offset="0" style="stop-color:#45B757"/>
			<stop  offset="1" style="stop-color:#008152"/>
		</linearGradient>
		<path style="fill:url(#SVGID_00000043421707331939200350000006823998618411785656_);" d="M304.79,477.35
			c-5.95,0-11.03,2.11-15.25,6.32c-4.21,4.22-6.31,9.29-6.31,15.24c0,5.95,2.1,11.02,6.31,15.24c4.21,4.21,9.29,6.32,15.25,6.32
			c5.94,0,11.02-2.11,15.24-6.32c4.21-4.22,6.31-9.29,6.31-15.24c0-5.95-2.1-11.02-6.31-15.24
			C315.81,479.46,310.74,477.35,304.79,477.35z"/>
		
			<linearGradient id="SVGID_00000075124131975859782580000016632984484046804880_" gradientUnits="userSpaceOnUse" x1="794.4352" y1="477.3546" x2="794.4352" y2="520.4777">
			<stop  offset="0" style="stop-color:#45B757"/>
			<stop  offset="1" style="stop-color:#008152"/>
		</linearGradient>
		<path style="fill:url(#SVGID_00000075124131975859782580000016632984484046804880_);" d="M794.44,477.35
			c-5.95,0-11.03,2.11-15.25,6.32c-4.21,4.22-6.31,9.29-6.31,15.24c0,5.95,2.1,11.02,6.31,15.24c4.21,4.21,9.29,6.32,15.25,6.32
			c5.94,0,11.02-2.11,15.24-6.32c4.21-4.22,6.31-9.29,6.31-15.24c0-5.95-2.1-11.02-6.31-15.24
			C805.46,479.46,800.38,477.35,794.44,477.35z"/>
		
			<linearGradient id="SVGID_00000100347825849812740210000014703856561770463406_" gradientUnits="userSpaceOnUse" x1="543.5318" y1="294.4673" x2="543.5318" y2="443.1594">
			<stop  offset="0" style="stop-color:#45B757"/>
			<stop  offset="1" style="stop-color:#008152"/>
		</linearGradient>
		<path style="fill:url(#SVGID_00000100347825849812740210000014703856561770463406_);" d="M859.86,405.99
			c-11.89,0-23.73-3.03-35.5-9.11c-11.77-6.07-23.04-14.43-33.82-25.09c-10.78-10.65-20.51-22.8-29.18-36.43l-20.81,39.77
			c2.97,4.71,7.25,10.29,12.82,16.73c5.58,6.45,10.97,11.15,16.18,14.13h-56.87h-14.88h-31.81c2.06-5.87,3.2-12.04,3.2-18.59
			c0-12.39-3.59-23.47-10.78-33.27c-7.19-9.79-16.36-16.42-27.51-19.89c-2.48-0.99-5.38-2.91-8.74-5.76
			c-3.34-2.84-6.01-7.99-7.99-15.42c-1.73,7.43-4.15,12.58-7.25,15.42c-3.1,2.85-6.01,4.65-8.74,5.39
			c-11.4,3.47-20.82,10.1-28.25,19.89c-7.43,9.79-11.15,21-11.15,33.64c0,6.54,1.14,12.72,3.19,18.59h-31.44h-14.88h-27.87V294.47
			l-37.18,8.18v57.86l-48.32-52.66l-24.53,33.83l59.21,64.31h-36.53h-14.87h-29.74v-74.35l-37.17,8.18v66.17H288.9h-14.87H246.9
			v-9.7c0.44-2.9,0.74-5.85,0.74-8.89v-72.86c-2.48,4.71-6.13,8.3-10.97,10.78c-4.83,2.48-10.04,4.15-15.61,5.02
			c-5.58,0.87-10.97,1.3-16.17,1.3c-5.21,0-9.42,0-12.65,0c-10.16,0-19.45,2.48-27.88,7.43c-8.42,4.96-15.19,11.65-20.26,20.07
			c-5.08,8.43-7.62,17.84-7.62,28.25c0,10.16,2.53,19.52,7.62,28.07c5.07,8.55,11.84,15.31,20.26,20.26
			c8.22,4.84,17.28,7.27,27.16,7.39l-0.03,0.04h39.03h16.36h27.14h14.87h29.74h22.3h44.61h14.87h115.23h14.88h83.63h83.64h14.88
			h215.59l22.31-37.17H859.86z M173.67,387.4c0-5.2,1.79-9.6,5.38-13.19c3.59-3.59,7.99-5.39,13.2-5.39c5.2,0,9.6,1.8,13.2,5.39
			c3.59,3.59,5.39,7.99,5.39,13.19c0,5.21-1.8,9.61-5.39,13.2c-3.59,3.6-7.99,5.39-13.2,5.39c-5.2,0-9.6-1.8-13.2-5.39
			C175.46,397.01,173.67,392.61,173.67,387.4z M600.96,400.6c-3.6-3.59-5.39-7.99-5.39-13.2c0-5.2,1.79-9.6,5.39-13.19
			c3.58-3.59,7.99-5.39,13.19-5.39c5.21,0,9.6,1.8,13.2,5.39c3.59,3.59,5.39,7.99,5.39,13.19c0,5.21-1.8,9.61-5.39,13.2
			c-3.59,3.6-7.99,5.39-13.2,5.39C608.95,405.99,604.54,404.19,600.96,400.6z"/>
	</g>
</g>
</svg>
